<svg width="20" height="20" viewBox="0 0 20 20" fill="none" xmlns="http://www.w3.org/2000/svg">
<path d="M9.99832 17.653C9.88469 17.653 4.58184 17.653 4.58184 17.653C4.23926 17.653 3.95363 17.4929 3.81773 17.2246C3.68187 16.9564 3.7218 16.6313 3.92453 16.3551L4.60527 15.4303C3.16187 13.9968 2.34375 12.0462 2.34375 9.9984C2.34375 5.77762 5.77758 2.34375 9.99832 2.34375C14.2192 2.34375 17.653 5.77762 17.653 9.9984C17.653 14.2192 14.2192 17.653 9.99832 17.653ZM9.99832 16.4812C13.573 16.4812 16.4812 13.573 16.4812 9.9984C16.4812 6.42379 13.573 3.51562 9.99832 3.51562C6.42375 3.51562 3.51562 6.42379 3.51562 9.9984C3.51562 11.8869 4.33727 13.6779 5.76988 14.9123L6.18098 15.2665L5.28684 16.4812H9.99832Z" fill="#232323"/>
<path d="M7.9593 10.0032C7.9593 10.4536 7.59422 10.8187 7.14379 10.8187C6.69328 10.8187 6.32812 10.4536 6.32812 10.0032C6.32812 9.55266 6.69328 9.1875 7.14379 9.1875C7.59422 9.1875 7.9593 9.5527 7.9593 10.0032Z" fill="#232323"/>
<path d="M10.003 10.8186C10.4535 10.8186 10.8186 10.4535 10.8186 10.003C10.8186 9.55263 10.4535 9.1875 10.003 9.1875C9.55263 9.1875 9.1875 9.55263 9.1875 10.003C9.1875 10.4535 9.55263 10.8186 10.003 10.8186Z" fill="#232323"/>
<path d="M12.8625 10.8187C13.3129 10.8187 13.678 10.4535 13.678 10.0031C13.678 9.55265 13.3129 9.1875 12.8625 9.1875C12.412 9.1875 12.0469 9.55265 12.0469 10.0031C12.0469 10.4535 12.412 10.8187 12.8625 10.8187Z" fill="#232323"/>
</svg>
