<svg width="20" height="19" viewBox="0 0 20 19" fill="none" xmlns="http://www.w3.org/2000/svg">
<path d="M16.1528 0.00365126C15.3996 0.00140545 14.6764 0.298482 14.1422 0.82946L13.0472 1.89939H2.63887C1.94045 1.90409 1.27197 2.18355 0.778106 2.67742C0.284237 3.17129 0.00470332 3.83979 0 4.53821V16.3611C0.00470332 17.0595 0.284237 17.728 0.778106 18.2219C1.27197 18.7157 1.94045 18.9953 2.63887 19H14.4617C15.1602 18.9953 15.8286 18.7157 16.3225 18.2219C16.8164 17.728 17.0959 17.0595 17.1006 16.3611V5.95283L18.1705 4.86132C18.5711 4.4636 18.8442 3.95567 18.9551 3.40221C19.066 2.84875 19.0097 2.27478 18.7933 1.75344C18.5769 1.2321 18.2102 0.787045 17.74 0.474791C17.2698 0.162537 16.7172 -0.00278664 16.1528 3.55383e-05V0.00365126ZM16.1564 1.88142C16.3969 1.88142 16.6375 1.97831 16.8313 2.16859C16.922 2.2557 16.9942 2.36025 17.0434 2.47593C17.0927 2.59161 17.1181 2.71603 17.1181 2.84177C17.1181 2.96751 17.0927 3.09194 17.0434 3.20762C16.9942 3.3233 16.922 3.42785 16.8313 3.51496L16.8242 3.52219L9.10501 11.3993H7.60067V9.89857L15.4778 2.17944L15.485 2.17221C15.5725 2.08248 15.6768 2.01091 15.792 1.96162C15.9072 1.91233 16.0311 1.88633 16.1564 1.88503V1.88142ZM2.63887 3.79863H11.112L5.98144 8.82503C5.80285 9.00289 5.70213 9.2444 5.7014 9.49646V12.3507C5.7014 12.8749 6.12506 13.295 6.64924 13.2986H9.50353C9.75485 13.2986 9.99899 13.198 10.1749 13.0185L15.2013 7.89162V16.3611C15.2043 16.459 15.1872 16.5565 15.1511 16.6476C15.115 16.7387 15.0606 16.8214 14.9914 16.8907C14.9221 16.96 14.8394 17.0144 14.7483 17.0505C14.6572 17.0866 14.5597 17.1036 14.4617 17.1006H2.63887C2.54094 17.1036 2.44343 17.0866 2.35235 17.0505C2.26126 17.0144 2.17853 16.96 2.10925 16.8907C2.03997 16.8214 1.9856 16.7387 1.94949 16.6476C1.91337 16.5565 1.89629 16.459 1.89927 16.3611V4.53821C1.89678 4.44057 1.91424 4.34344 1.95058 4.25278C1.98691 4.16212 2.04136 4.07986 2.11059 4.01097C2.17982 3.94207 2.26238 3.88799 2.35321 3.85209C2.44405 3.8162 2.54125 3.79928 2.63887 3.80224V3.79863Z" fill="url(#paint0_linear_296_16203)"/>
<defs>
<linearGradient id="paint0_linear_296_16203" x1="0" y1="0" x2="21.2581" y2="1.77908" gradientUnits="userSpaceOnUse">
<stop stop-color="#7511F4"/>
<stop offset="1" stop-color="#BD08DA"/>
</linearGradient>
</defs>
</svg>
