<svg width="18" height="18" viewBox="0 0 18 18" fill="none" xmlns="http://www.w3.org/2000/svg">
<path d="M16 0H2C0.9 0 0 0.9 0 2V16C0 17.1 0.9 18 2 18H16C17.1 18 18 17.1 18 16V2C18 0.9 17.1 0 16 0ZM16 16H2V2H16V16ZM4 7H6V14H4V7ZM8 4H10V14H8V4ZM12 10H14V14H12V10Z" fill="url(#paint0_linear_296_16197)"/>
<defs>
<linearGradient id="paint0_linear_296_16197" x1="0" y1="0" x2="20.1283" y2="1.68359" gradientUnits="userSpaceOnUse">
<stop stop-color="#7511F4"/>
<stop offset="1" stop-color="#BD08DA"/>
</linearGradient>
</defs>
</svg>
