<svg width="18" height="18" viewBox="0 0 18 18" fill="none" xmlns="http://www.w3.org/2000/svg">
<g opacity="0.2" clip-path="url(#clip0_296_15339)">
<path d="M17.562 10.2532C17.3778 10.2072 17.1937 10.2532 17.0326 10.3683C16.4342 10.8747 15.7436 11.289 14.9841 11.5652C14.2706 11.8414 13.488 11.9795 12.6594 11.9795C10.795 11.9795 9.09172 11.22 7.87182 10.0001C6.65192 8.78015 5.89236 7.07689 5.89236 5.21252C5.89236 4.42994 6.03046 3.67037 6.26063 2.97986C6.51382 2.24332 6.88209 1.57583 7.36545 1.0004C7.5726 0.747213 7.52656 0.378941 7.27338 0.171788C7.11226 0.0567029 6.92812 0.0106689 6.74399 0.0567029C4.78754 0.586094 3.08428 1.75996 1.86438 3.32512C0.690511 4.86726 0 6.77767 0 8.8492C0 11.3581 1.01275 13.6367 2.66997 15.294C4.3272 16.9512 6.58287 17.9639 9.11474 17.9639C11.2323 17.9639 13.1888 17.2274 14.7539 16.0075C16.3421 14.7646 17.4929 12.9923 17.9763 10.9668C18.0684 10.6445 17.8842 10.3223 17.562 10.2532Z" fill="black"/>
</g>
<defs>
<clipPath id="clip0_296_15339">
<rect width="18" height="18" fill="white"/>
</clipPath>
</defs>
</svg>
