<svg width="21" height="21" viewBox="0 0 21 21" fill="none" xmlns="http://www.w3.org/2000/svg">
<path d="M10.5 0.5C4.98 0.5 0.5 4.98 0.5 10.5C0.5 16.02 4.98 20.5 10.5 20.5H15.5V18.5H10.5C6.16 18.5 2.5 14.84 2.5 10.5C2.5 6.16 6.16 2.5 10.5 2.5C14.84 2.5 18.5 6.16 18.5 10.5V11.93C18.5 12.72 17.79 13.5 17 13.5C16.21 13.5 15.5 12.72 15.5 11.93V10.5C15.5 7.74 13.26 5.5 10.5 5.5C7.74 5.5 5.5 7.74 5.5 10.5C5.5 13.26 7.74 15.5 10.5 15.5C11.88 15.5 13.14 14.94 14.04 14.03C14.69 14.92 15.81 15.5 17 15.5C18.97 15.5 20.5 13.9 20.5 11.93V10.5C20.5 4.98 16.02 0.5 10.5 0.5ZM10.5 13.5C8.84 13.5 7.5 12.16 7.5 10.5C7.5 8.84 8.84 7.5 10.5 7.5C12.16 7.5 13.5 8.84 13.5 10.5C13.5 12.16 12.16 13.5 10.5 13.5Z" fill="white"/>
</svg>
