<svg width="8" height="8" viewBox="0 0 8 8" fill="none" xmlns="http://www.w3.org/2000/svg">
<path d="M-4.37813e-08 6.9984C-1.48619e-08 7.66 0.608085 8 1.08251 8L7.39283 8C7.65671 8 7.86094 7.9496 7.95158 7.6888C7.98428 7.5976 7.99976 7.5984 7.99976 7.4968C7.99976 7.308 7.94584 7.104 7.84086 6.916L5.53749 4.572C5.42448 4.3704 5.42448 3.9904 5.53749 3.788L7.84086 1.4264C8.00263 1.1352 8.04394 0.7704 7.95158 0.5096C7.86036 0.248 7.65729 1.42127e-07 7.39283 1.53686e-07L1.08251 4.29519e-07C0.608085 4.50257e-07 -3.17485e-07 0.7368 -2.88565e-07 1.3984L-4.37813e-08 6.9984Z" fill="#1D8F71"/>
</svg>
