<svg width="11" height="11" viewBox="0 0 11 11" fill="none" xmlns="http://www.w3.org/2000/svg">
<path d="M-5.8669e-08 9.65781C-1.99156e-08 10.5444 0.832317 11 1.48168 11L10.1189 11C10.4801 11 10.7597 10.9325 10.8837 10.583C10.9285 10.4608 10.9497 10.4618 10.9497 10.3257C10.9497 10.0727 10.8759 9.79932 10.7322 9.54739L7.94819 6.40632C7.7935 6.13617 7.7935 5.62695 7.94819 5.35572L10.7322 2.19107C10.9536 1.80085 11.0101 1.312 10.8837 0.962514C10.7589 0.611958 10.4809 0.279626 10.1189 0.279626L1.48168 0.279627C0.832316 0.279627 -4.25444e-07 1.26697 -3.86691e-07 2.15355L-5.8669e-08 9.65781Z" fill="black"/>
</svg>
