<svg width="161" height="25" viewBox="0 0 161 25" fill="none" xmlns="http://www.w3.org/2000/svg">
<path d="M12.5 0.5C10.1266 0.5 7.80655 1.20379 5.83316 2.52236C3.85977 3.84094 2.3217 5.71508 1.41345 7.9078C0.505199 10.1005 0.267559 12.5133 0.730582 14.8411C1.1936 17.1689 2.33649 19.307 4.01472 20.9853C5.69295 22.6635 7.83115 23.8064 10.1589 24.2694C12.4867 24.7324 14.8995 24.4948 17.0922 23.5866C19.2849 22.6783 21.1591 21.1402 22.4776 19.1668C23.7962 17.1935 24.5 14.8734 24.5 12.5C24.5 9.3174 23.2357 6.26515 20.9853 4.01472C18.7348 1.76428 15.6826 0.5 12.5 0.5V0.5ZM15.9137 8.30947C15.9137 8.53526 15.819 8.62526 15.5979 8.62526C15.1732 8.62526 14.7484 8.62526 14.3253 8.64263C13.9021 8.66 13.6716 8.85263 13.6716 9.29474C13.6621 9.76842 13.6716 10.2326 13.6716 10.7158H15.4889C15.7479 10.7158 15.8363 10.8042 15.8363 11.0647C15.8363 11.6963 15.8363 12.3311 15.8363 12.9689C15.8363 13.2263 15.7542 13.3068 15.4937 13.3084H13.6558V18.4463C13.6558 18.7211 13.5705 18.8079 13.299 18.8079H11.3221C11.0837 18.8079 10.9905 18.7147 10.9905 18.4763V13.3163H9.42106C9.17474 13.3163 9.08632 13.2263 9.08632 12.9784C9.08632 12.3395 9.08632 11.7011 9.08632 11.0632C9.08632 10.8168 9.17948 10.7237 9.42264 10.7237H10.9905V9.3421C10.9719 8.72151 11.1208 8.10737 11.4216 7.56421C11.7342 7.01585 12.2352 6.59957 12.8316 6.39263C13.2186 6.25181 13.6276 6.18123 14.0395 6.18421H15.5916C15.8142 6.18421 15.9074 6.2821 15.9074 6.5C15.9153 7.10789 15.9153 7.70947 15.9137 8.30947Z" fill="white"/>
<path fill-rule="evenodd" clip-rule="evenodd" d="M46.5 0.5C53.1277 0.5 58.5 5.87234 58.5 12.5C58.5 19.1277 53.1277 24.5 46.5 24.5C39.8723 24.5 34.5 19.1277 34.5 12.5C34.5 5.87234 39.8723 0.5 46.5 0.5ZM41.1544 18.0692H43.4527V10.6437H41.1544V18.0692ZM42.2925 9.67156C43.0434 9.67156 43.6519 9.0575 43.6519 8.30094C43.6519 7.54437 43.0434 6.93078 42.2925 6.93078C41.5416 6.93078 40.9336 7.54437 40.9336 8.30094C40.9336 9.0575 41.5416 9.67156 42.2925 9.67156ZM47.1267 14.1716C47.1267 13.1277 47.6077 12.5052 48.5278 12.5052C49.3725 12.5052 49.7789 13.1023 49.7789 14.1716V18.0692H52.0664C52.0664 18.0692 52.0664 15.3566 52.0664 13.3677C52.0664 11.3788 50.9391 10.4169 49.3645 10.4169C47.7895 10.4169 47.1267 11.6441 47.1267 11.6441V10.6437H44.9222V18.0692H47.1267C47.1267 18.0692 47.1267 15.3153 47.1267 14.1716Z" fill="white"/>
<path d="M80.4924 15.0263C81.8842 15.0263 83.0124 13.8981 83.0124 12.5063C83.0124 11.1146 81.8842 9.98633 80.4924 9.98633C79.1007 9.98633 77.9724 11.1146 77.9724 12.5063C77.9724 13.8981 79.1007 15.0263 80.4924 15.0263Z" fill="white"/>
<path d="M80.5 0.5C73.8726 0.5 68.5 5.87259 68.5 12.5C68.5 19.1274 73.8726 24.5 80.5 24.5C87.1274 24.5 92.5 19.1274 92.5 12.5C92.5 5.87259 87.1274 0.5 80.5 0.5ZM87.914 15.5499C87.8564 16.6908 87.5358 17.8158 86.7044 18.6384C85.8649 19.4688 84.7346 19.7782 83.5827 19.8352H77.4173C76.2653 19.7782 75.1351 19.469 74.2957 18.6384C73.4642 17.8158 73.1437 16.6908 73.0861 15.5499V9.45008C73.1437 8.30922 73.4643 7.18419 74.2957 6.36157C75.1351 5.53117 76.2655 5.22176 77.4173 5.16478H83.5827C84.7347 5.22176 85.8649 5.53102 86.7043 6.36157C87.5358 7.18419 87.8563 8.30922 87.9139 9.45008L87.914 15.5499Z" fill="white"/>
<path d="M83.5157 6.55433C82.014 6.51314 79.0082 6.51314 77.5065 6.55433C76.725 6.57578 75.8391 6.77033 75.2823 7.36505C74.7037 7.98324 74.4851 8.73012 74.4629 9.56565C74.4239 11.0321 74.4629 15.4338 74.4629 15.4338C74.4883 16.2692 74.7037 17.0162 75.2823 17.6344C75.8391 18.2293 76.725 18.4236 77.5065 18.4451C79.0082 18.4863 82.014 18.4863 83.5157 18.4451C84.2972 18.4236 85.1832 18.2291 85.74 17.6344C86.3185 17.0162 86.5372 16.2693 86.5594 15.4338V9.56565C86.5372 8.73012 86.3185 7.98324 85.74 7.36505C85.183 6.77013 84.297 6.57578 83.5157 6.55433ZM80.5109 16.4057C79.7384 16.4057 78.9832 16.1766 78.3409 15.7474C77.6985 15.3182 77.1979 14.7082 76.9023 13.9945C76.6066 13.2807 76.5293 12.4954 76.68 11.7377C76.8307 10.98 77.2027 10.284 77.749 9.73774C78.2952 9.19148 78.9912 8.81947 79.7489 8.66875C80.5066 8.51804 81.292 8.59539 82.0057 8.89103C82.7194 9.18666 83.3294 9.68731 83.7586 10.3296C84.1878 10.972 84.4169 11.7272 84.4169 12.4997C84.4169 13.5356 84.0054 14.5291 83.2729 15.2617C82.5404 15.9942 81.5469 16.4057 80.5109 16.4057ZM84.4335 9.39996C84.279 9.39992 84.128 9.35407 83.9996 9.26821C83.8711 9.18235 83.771 9.06033 83.7119 8.91758C83.6528 8.77483 83.6374 8.61776 83.6676 8.46624C83.6977 8.31471 83.7721 8.17553 83.8814 8.0663C83.9907 7.95706 84.1299 7.88268 84.2814 7.85255C84.4329 7.82243 84.59 7.83791 84.7327 7.89704C84.8755 7.95617 84.9975 8.0563 85.0833 8.18477C85.1691 8.31323 85.2149 8.46426 85.2149 8.61876C85.2149 8.72136 85.1947 8.82296 85.1554 8.91775C85.1162 9.01255 85.0586 9.09867 84.9861 9.17122C84.9135 9.24376 84.8273 9.3013 84.7325 9.34055C84.6377 9.37979 84.5361 9.39998 84.4335 9.39996Z" fill="white"/>
<path d="M114.492 15.0263C115.884 15.0263 117.012 13.8981 117.012 12.5063C117.012 11.1146 115.884 9.98633 114.492 9.98633C113.101 9.98633 111.972 11.1146 111.972 12.5063C111.972 13.8981 113.101 15.0263 114.492 15.0263Z" fill="white"/>
<path d="M114.5 0.5C107.873 0.5 102.5 5.87259 102.5 12.5C102.5 19.1274 107.873 24.5 114.5 24.5C121.127 24.5 126.5 19.1274 126.5 12.5C126.5 5.87259 121.127 0.5 114.5 0.5ZM121.914 15.5499C121.856 16.6908 121.536 17.8158 120.704 18.6384C119.865 19.4688 118.735 19.7782 117.583 19.8352H111.417C110.265 19.7782 109.135 19.469 108.296 18.6384C107.464 17.8158 107.144 16.6908 107.086 15.5499V9.45008C107.144 8.30922 107.464 7.18419 108.296 6.36157C109.135 5.53117 110.265 5.22176 111.417 5.16478H117.583C118.735 5.22176 119.865 5.53102 120.704 6.36157C121.536 7.18419 121.856 8.30922 121.914 9.45008L121.914 15.5499Z" fill="white"/>
<path d="M117.516 6.55433C116.014 6.51314 113.008 6.51314 111.507 6.55433C110.725 6.57578 109.839 6.77033 109.282 7.36505C108.704 7.98324 108.485 8.73012 108.463 9.56565C108.424 11.0321 108.463 15.4338 108.463 15.4338C108.488 16.2692 108.704 17.0162 109.282 17.6344C109.839 18.2293 110.725 18.4236 111.507 18.4451C113.008 18.4863 116.014 18.4863 117.516 18.4451C118.297 18.4236 119.183 18.2291 119.74 17.6344C120.319 17.0162 120.537 16.2693 120.559 15.4338V9.56565C120.537 8.73012 120.319 7.98324 119.74 7.36505C119.183 6.77013 118.297 6.57578 117.516 6.55433ZM114.511 16.4057C113.738 16.4057 112.983 16.1766 112.341 15.7474C111.699 15.3182 111.198 14.7082 110.902 13.9945C110.607 13.2807 110.529 12.4954 110.68 11.7377C110.831 10.98 111.203 10.284 111.749 9.73774C112.295 9.19148 112.991 8.81947 113.749 8.66875C114.507 8.51804 115.292 8.59539 116.006 8.89103C116.719 9.18666 117.329 9.68731 117.759 10.3296C118.188 10.972 118.417 11.7272 118.417 12.4997C118.417 13.5356 118.005 14.5291 117.273 15.2617C116.54 15.9942 115.547 16.4057 114.511 16.4057ZM118.434 9.39996C118.279 9.39992 118.128 9.35407 118 9.26821C117.871 9.18235 117.771 9.06033 117.712 8.91758C117.653 8.77483 117.637 8.61776 117.668 8.46624C117.698 8.31471 117.772 8.17553 117.881 8.0663C117.991 7.95706 118.13 7.88268 118.281 7.85255C118.433 7.82243 118.59 7.83791 118.733 7.89704C118.875 7.95617 118.997 8.0563 119.083 8.18477C119.169 8.31323 119.215 8.46426 119.215 8.61876C119.215 8.72136 119.195 8.82296 119.155 8.91775C119.116 9.01255 119.059 9.09867 118.986 9.17122C118.913 9.24376 118.827 9.3013 118.733 9.34055C118.638 9.37979 118.536 9.39998 118.434 9.39996Z" fill="white"/>
<path d="M148.492 15.0263C149.884 15.0263 151.012 13.8981 151.012 12.5063C151.012 11.1146 149.884 9.98633 148.492 9.98633C147.101 9.98633 145.972 11.1146 145.972 12.5063C145.972 13.8981 147.101 15.0263 148.492 15.0263Z" fill="white"/>
<path d="M148.5 0.5C141.873 0.5 136.5 5.87259 136.5 12.5C136.5 19.1274 141.873 24.5 148.5 24.5C155.127 24.5 160.5 19.1274 160.5 12.5C160.5 5.87259 155.127 0.5 148.5 0.5ZM155.914 15.5499C155.856 16.6908 155.536 17.8158 154.704 18.6384C153.865 19.4688 152.735 19.7782 151.583 19.8352H145.417C144.265 19.7782 143.135 19.469 142.296 18.6384C141.464 17.8158 141.144 16.6908 141.086 15.5499V9.45008C141.144 8.30922 141.464 7.18419 142.296 6.36157C143.135 5.53117 144.265 5.22176 145.417 5.16478H151.583C152.735 5.22176 153.865 5.53102 154.704 6.36157C155.536 7.18419 155.856 8.30922 155.914 9.45008L155.914 15.5499Z" fill="white"/>
<path d="M151.516 6.55433C150.014 6.51314 147.008 6.51314 145.507 6.55433C144.725 6.57578 143.839 6.77033 143.282 7.36505C142.704 7.98324 142.485 8.73012 142.463 9.56565C142.424 11.0321 142.463 15.4338 142.463 15.4338C142.488 16.2692 142.704 17.0162 143.282 17.6344C143.839 18.2293 144.725 18.4236 145.507 18.4451C147.008 18.4863 150.014 18.4863 151.516 18.4451C152.297 18.4236 153.183 18.2291 153.74 17.6344C154.319 17.0162 154.537 16.2693 154.559 15.4338V9.56565C154.537 8.73012 154.319 7.98324 153.74 7.36505C153.183 6.77013 152.297 6.57578 151.516 6.55433ZM148.511 16.4057C147.738 16.4057 146.983 16.1766 146.341 15.7474C145.699 15.3182 145.198 14.7082 144.902 13.9945C144.607 13.2807 144.529 12.4954 144.68 11.7377C144.831 10.98 145.203 10.284 145.749 9.73774C146.295 9.19148 146.991 8.81947 147.749 8.66875C148.507 8.51804 149.292 8.59539 150.006 8.89103C150.719 9.18666 151.329 9.68731 151.759 10.3296C152.188 10.972 152.417 11.7272 152.417 12.4997C152.417 13.5356 152.005 14.5291 151.273 15.2617C150.54 15.9942 149.547 16.4057 148.511 16.4057ZM152.434 9.39996C152.279 9.39992 152.128 9.35407 152 9.26821C151.871 9.18235 151.771 9.06033 151.712 8.91758C151.653 8.77483 151.637 8.61776 151.668 8.46624C151.698 8.31471 151.772 8.17553 151.881 8.0663C151.991 7.95706 152.13 7.88268 152.281 7.85255C152.433 7.82243 152.59 7.83791 152.733 7.89704C152.875 7.95617 152.997 8.0563 153.083 8.18477C153.169 8.31323 153.215 8.46426 153.215 8.61876C153.215 8.72136 153.195 8.82296 153.155 8.91775C153.116 9.01255 153.059 9.09867 152.986 9.17122C152.913 9.24376 152.827 9.3013 152.733 9.34055C152.638 9.37979 152.536 9.39998 152.434 9.39996Z" fill="white"/>
</svg>
