<svg width="20" height="20" viewBox="0 0 20 20" fill="none" xmlns="http://www.w3.org/2000/svg">
<path d="M8.90842 0.000591523C8.55317 -0.00995391 8.20825 0.120858 7.94936 0.364352L1.71314 6.2605C1.45695 6.47732 1.29168 6.78256 1.25014 7.11561C1.24744 7.30561 1.28283 7.49418 1.35424 7.67026C1.42564 7.84635 1.53162 8.00628 1.66589 8.14072L4.53834 11.1785V18.7424C4.53834 19.4274 5.10527 19.999 5.79031 19.999H14.5399C14.8704 19.9941 15.1857 19.8596 15.418 19.6246C15.6504 19.3896 15.7812 19.0729 15.7824 18.7424V17.41L17.3415 16.9896C17.6671 16.9009 17.9448 16.6878 18.1145 16.396C18.2843 16.1043 18.3324 15.7574 18.2486 15.4305L17.7289 13.4841L19.1226 12.1613C19.3767 11.9179 19.5251 11.5845 19.5357 11.2327C19.5463 10.881 19.4183 10.5391 19.1793 10.2809L16.2265 7.16276L15.9431 6.86993L15.7824 6.25574V4.99433C15.7789 4.78089 15.72 4.57205 15.6115 4.38821C15.503 4.20436 15.3487 4.05173 15.1635 3.94544L14.6911 2.19281C14.6004 1.86892 14.3863 1.59347 14.0948 1.42564C13.8034 1.25782 13.4577 1.21098 13.132 1.29516L11.1714 1.81954L9.83913 0.406884C9.7184 0.281191 9.57403 0.180613 9.41431 0.110887C9.25459 0.0411614 9.08267 0.00366807 8.90842 0.000591523ZM8.81393 1.26676C8.85645 1.22896 8.88952 1.23376 8.92731 1.27628L9.79661 2.18805L7.07062 2.92033L8.81393 1.26676ZM13.458 2.50452C13.4816 2.4998 13.4816 2.49042 13.4864 2.51404L13.8171 3.74705H8.8092L13.458 2.50452ZM5.79031 4.99433H14.1478L14.5399 6.45888V18.7424H5.79031V4.99433ZM4.53834 5.32031V9.35974L2.57298 7.28098C2.53046 7.24319 2.53991 7.21007 2.5777 7.17227L4.53834 5.32031ZM10.1462 7.4935C10.0449 7.49682 9.94587 7.52489 9.85778 7.57511C9.7697 7.62532 9.69518 7.6962 9.6407 7.78171L7.13676 11.5282C7.06949 11.6306 7.03365 11.7505 7.03365 11.873C7.03365 11.9956 7.06949 12.1155 7.13676 12.2179L9.6407 15.9739C9.69831 16.0587 9.77579 16.1281 9.86637 16.176C9.95695 16.224 10.0579 16.249 10.1604 16.249C10.2629 16.249 10.3638 16.224 10.4544 16.176C10.545 16.1281 10.6225 16.0587 10.6801 15.9739L13.184 12.2227C13.2523 12.1197 13.2887 11.999 13.2887 11.8755C13.2887 11.752 13.2523 11.6311 13.184 11.5282L10.6801 7.78171C10.6221 7.69339 10.5428 7.62119 10.4495 7.57165C10.3562 7.5221 10.2519 7.49682 10.1462 7.49826V7.4935ZM10.1557 9.25579L11.9084 11.8778L10.1557 14.4904L8.40763 11.8778L10.1557 9.25579ZM16.6281 9.41164L18.2675 11.1408C18.3053 11.1786 18.3053 11.2211 18.2675 11.2588L17.3557 12.114L16.6281 9.41164ZM15.7824 11.103L17.0297 15.7519C17.0344 15.7755 17.0391 15.7754 17.0202 15.7801L15.7824 16.1109V11.103Z" fill="white"/>
</svg>
