<svg width="13" height="13" viewBox="0 0 13 13" fill="none" xmlns="http://www.w3.org/2000/svg">
<path d="M9.51573 0.554326C8.014 0.513141 5.00824 0.513141 3.50651 0.554326C2.72502 0.575782 1.83909 0.770325 1.28229 1.36505C0.703696 1.98324 0.485055 2.73012 0.462879 3.56565C0.423903 5.03215 0.462879 9.43375 0.462879 9.43375C0.488271 10.2692 0.703696 11.0162 1.28229 11.6344C1.83909 12.2293 2.72502 12.4236 3.50651 12.4451C5.00824 12.4863 8.014 12.4863 9.51573 12.4451C10.2972 12.4236 11.1832 12.2291 11.74 11.6344C12.3185 11.0162 12.5372 10.2693 12.5594 9.43375V3.56565C12.5372 2.73012 12.3185 1.98324 11.74 1.36505C11.183 0.770133 10.297 0.575782 9.51573 0.554326ZM6.51093 10.4057C5.73839 10.4057 4.98321 10.1766 4.34087 9.74742C3.69853 9.31822 3.19789 8.70819 2.90225 7.99446C2.60662 7.28074 2.52927 6.49537 2.67998 5.73768C2.83069 4.97999 3.2027 4.28401 3.74897 3.73774C4.29523 3.19148 4.99121 2.81947 5.7489 2.66875C6.50659 2.51804 7.29196 2.59539 8.00569 2.89103C8.71942 3.18666 9.32945 3.68731 9.75865 4.32964C10.1878 4.97198 10.4169 5.72717 10.4169 6.4997C10.4169 7.53564 10.0054 8.52914 9.27289 9.26166C8.54037 9.99418 7.54686 10.4057 6.51093 10.4057ZM10.4335 3.39996C10.279 3.39992 10.128 3.35407 9.99958 3.26821C9.87113 3.18235 9.77104 3.06033 9.71194 2.91758C9.65284 2.77483 9.6374 2.61776 9.66756 2.46624C9.69773 2.31471 9.77214 2.17553 9.8814 2.0663C9.99066 1.95706 10.1299 1.88268 10.2814 1.85255C10.4329 1.82243 10.59 1.83791 10.7327 1.89704C10.8755 1.95617 10.9975 2.0563 11.0833 2.18477C11.1691 2.31323 11.2149 2.46426 11.2149 2.61876C11.2149 2.72136 11.1947 2.82296 11.1554 2.91775C11.1162 3.01255 11.0586 3.09867 10.9861 3.17122C10.9135 3.24376 10.8273 3.3013 10.7325 3.34055C10.6377 3.37979 10.5361 3.39998 10.4335 3.39996Z" fill="white"/>
</svg>
