<svg width="20" height="20" viewBox="0 0 20 20" fill="none" xmlns="http://www.w3.org/2000/svg">
<path d="M15.8734 7.67936H12.5153L13.2741 4.26186C13.3674 3.84 13.3373 3.40019 13.1873 2.99499C13.0373 2.58979 12.7739 2.23634 12.4284 1.97686L11.9059 1.58498C11.7174 1.44302 11.5009 1.34275 11.2707 1.29082C11.0405 1.23889 10.8019 1.23648 10.5707 1.28376C10.3395 1.33104 10.121 1.42692 9.92968 1.56506C9.73836 1.70319 9.57858 1.88041 9.46094 2.08498C8.42809 3.96482 7.25124 5.76185 5.94094 7.45998C5.89055 7.35327 5.81098 7.26301 5.71144 7.19964C5.6119 7.13626 5.49644 7.10236 5.37844 7.10186H1.91406C1.7483 7.10186 1.58933 7.16771 1.47212 7.28492C1.35491 7.40213 1.28906 7.5611 1.28906 7.72686V17.5481C1.28906 17.7139 1.35491 17.8728 1.47212 17.99C1.58933 18.1073 1.7483 18.1731 1.91406 18.1731H5.38031C5.52989 18.172 5.67398 18.1167 5.78583 18.0174C5.89767 17.918 5.96967 17.7815 5.98844 17.6331C6.31167 17.984 6.7039 18.2644 7.14054 18.4567C7.57718 18.649 8.04883 18.7491 8.52594 18.7506H11.9572C12.5252 18.7512 13.0845 18.6113 13.5853 18.3432C14.0861 18.0752 14.5127 17.6874 14.8272 17.2144L18.2384 12.0975C18.5235 11.6694 18.6871 11.172 18.7118 10.6583C18.7365 10.1446 18.6214 9.63381 18.3786 9.18038C18.1359 8.72695 17.7747 8.34787 17.3335 8.08353C16.8924 7.8192 16.3877 7.67951 15.8734 7.67936ZM4.75531 16.9231H2.53906V8.35123H4.75531V16.9231ZM17.1984 11.405L13.7872 16.5212C13.5866 16.8227 13.3145 17.0699 12.9952 17.2408C12.6759 17.4117 12.3193 17.5009 11.9572 17.5006H8.52594C8.18453 17.4998 7.84795 17.42 7.54259 17.2673C7.23723 17.1146 6.9714 16.8933 6.76594 16.6206L6.00531 15.6069V9.18811C7.31094 8.08623 9.16969 5.10436 10.5447 2.70748C10.5736 2.65645 10.6132 2.61226 10.6608 2.57796C10.7083 2.54365 10.7628 2.52004 10.8203 2.50873C10.8785 2.49655 10.9386 2.49694 10.9965 2.50987C11.0545 2.52281 11.1091 2.54799 11.1566 2.58373L11.6784 2.97561C11.8317 3.09099 11.9486 3.24803 12.0151 3.42801C12.0816 3.60798 12.0949 3.80328 12.0534 3.99061L11.1272 8.16873C11.1069 8.26009 11.1073 8.35484 11.1286 8.44599C11.1498 8.53714 11.1912 8.62237 11.2497 8.69538C11.3083 8.76839 11.3825 8.82731 11.4668 8.86781C11.5512 8.90831 11.6436 8.92934 11.7372 8.92936H15.8753C16.1634 8.9296 16.4461 9.00798 16.6932 9.15614C16.9403 9.3043 17.1426 9.51669 17.2785 9.77072C17.4145 10.0247 17.479 10.3109 17.4653 10.5987C17.4515 10.8864 17.3599 11.1651 17.2003 11.405H17.1984Z" fill="#232323"/>
</svg>
