<svg width="25" height="25" viewBox="0 0 25 25" fill="none" xmlns="http://www.w3.org/2000/svg">
<path fill-rule="evenodd" clip-rule="evenodd" d="M12.5 0.5C19.1277 0.5 24.5 5.87234 24.5 12.5C24.5 19.1277 19.1277 24.5 12.5 24.5C5.87234 24.5 0.5 19.1277 0.5 12.5C0.5 5.87234 5.87234 0.5 12.5 0.5ZM7.15438 18.0692H9.45266V10.6437H7.15438V18.0692ZM8.2925 9.67156C9.04344 9.67156 9.65188 9.0575 9.65188 8.30094C9.65188 7.54437 9.04344 6.93078 8.2925 6.93078C7.54156 6.93078 6.93359 7.54437 6.93359 8.30094C6.93359 9.0575 7.54156 9.67156 8.2925 9.67156ZM13.1267 14.1716C13.1267 13.1277 13.6077 12.5052 14.5278 12.5052C15.3725 12.5052 15.7789 13.1023 15.7789 14.1716V18.0692H18.0664C18.0664 18.0692 18.0664 15.3566 18.0664 13.3677C18.0664 11.3788 16.9391 10.4169 15.3645 10.4169C13.7895 10.4169 13.1267 11.6441 13.1267 11.6441V10.6437H10.9222V18.0692H13.1267C13.1267 18.0692 13.1267 15.3153 13.1267 14.1716Z" fill="white"/>
</svg>
