<svg width="42" height="42" viewBox="0 0 42 42" fill="none" xmlns="http://www.w3.org/2000/svg">
<mask id="mask0_296_15351" style="mask-type:alpha" maskUnits="userSpaceOnUse" x="0" y="0" width="42" height="42">
<rect x="0.9" y="0.9" width="40.2" height="40.2" rx="20.1" fill="#1143F4" stroke="#D7D7D7" stroke-width="0.2"/>
</mask>
<g mask="url(#mask0_296_15351)">
<rect x="0.9" y="0.9" width="40.2" height="40.2" rx="20.1" fill="url(#paint0_linear_296_15351)" stroke="#D7D7D7" stroke-width="0.2"/>
<path d="M40.5886 41.4662H2C3.77927 33.8751 8.55465 32.3589 8.55465 32.3589L17.7588 28.2676L21.2466 28.2373H21.3421L24.8334 28.2676L34.0375 32.3589C34.0375 32.3589 38.8093 33.8751 40.5886 41.4662Z" fill="white"/>
<path d="M23.4043 6.46266C23.4043 6.46266 26.6162 5.1011 27.7552 7.67292C28.8518 10.1472 24.4973 12.5073 24.4973 12.5073L23.4043 6.45929V6.46266Z" fill="#1E0B02"/>
<path d="M17.3984 16.727C17.4337 17.87 16.4857 18.8247 15.283 18.855C14.0804 18.8886 13.0758 17.9876 13.0439 16.8446C13.0086 15.7016 13.9566 14.7468 15.1592 14.7166C16.3619 14.6863 17.3665 15.5839 17.3984 16.727Z" fill="#C67D69"/>
<path d="M13.9805 16.4949C13.9805 16.4949 14.8471 16.0949 15.6713 17.5236" stroke="#A8523F" stroke-width="0.75" stroke-linecap="round" stroke-linejoin="round"/>
<path d="M27.5325 18.8586C28.7359 18.8586 29.7115 17.9314 29.7115 16.7877C29.7115 15.644 28.7359 14.7168 27.5325 14.7168C26.3291 14.7168 25.3535 15.644 25.3535 16.7877C25.3535 17.9314 26.3291 18.8586 27.5325 18.8586Z" fill="#C67D69"/>
<path d="M28.7602 16.4619C28.7602 16.4619 27.8829 16.0853 27.0977 17.5377" stroke="#A8523F" stroke-width="0.75" stroke-linecap="round" stroke-linejoin="round"/>
<path d="M24.1729 21.5578C24.1729 21.5578 22.9455 22.3814 21.8241 22.5865C20.7028 22.7882 19.6169 22.173 19.6027 22.1663C19.5886 22.1595 18.2939 21.4502 18.2939 21.4502L17.7598 28.268L17.9048 28.3823C19.8043 29.8716 22.5387 29.8884 24.4594 28.426L24.7389 28.2109L24.1729 21.5611V21.5578Z" fill="#C67D69"/>
<path d="M17.7598 20.7344C17.7598 20.7344 18.9801 24.5333 21.7923 24.4896C24.1022 24.4559 24.4736 20.7344 24.4736 20.7344H17.7598Z" fill="#1E0B02"/>
<path d="M27.2613 13.1797C27.2754 15.5195 26.9323 17.5434 26.5892 18.9789C26.2532 20.3841 25.291 21.3692 23.9256 22.1659L23.678 22.3105C22.2348 23.1543 20.3671 23.1812 18.892 22.3844C17.4063 21.581 16.3628 20.5153 16.0338 19.0091C15.4396 16.2726 15.3582 13.2368 15.3582 13.2368C15.3582 13.2368 14.5199 6.90311 20.9401 6.98716C27.3568 7.0712 27.2578 13.1797 27.2578 13.1797H27.2613Z" fill="#C67D69"/>
<path d="M18.5395 15.5343C18.8267 15.5343 19.0595 15.313 19.0595 15.0401C19.0595 14.7672 18.8267 14.5459 18.5395 14.5459C18.2523 14.5459 18.0195 14.7672 18.0195 15.0401C18.0195 15.313 18.2523 15.5343 18.5395 15.5343Z" fill="#1E0B02"/>
<path d="M23.6372 15.5343C23.9244 15.5343 24.1572 15.313 24.1572 15.0401C24.1572 14.7672 23.9244 14.5459 23.6372 14.5459C23.35 14.5459 23.1172 14.7672 23.1172 15.0401C23.1172 15.313 23.35 15.5343 23.6372 15.5343Z" fill="#1E0B02"/>
<path d="M20.6172 15.7588V17.1203H21.544" stroke="#A8523F" stroke-width="0.75" stroke-linecap="round" stroke-linejoin="round"/>
<path d="M16.6051 12.952L19.9974 12.6628C19.9974 12.6628 19.6932 11.8257 18.3207 11.9636C16.9164 12.1014 16.6016 12.9553 16.6016 12.9553L16.6051 12.952Z" fill="black"/>
<path d="M25.3532 12.952L21.9609 12.6628C21.9609 12.6628 22.2651 11.8257 23.6376 11.9636C25.0419 12.1014 25.3568 12.9553 25.3568 12.9553L25.3532 12.952Z" fill="black"/>
<path d="M19.457 18.25H22.8033C22.8033 18.25 22.6477 19.2249 21.0807 19.2249C19.5136 19.2249 19.457 18.25 19.457 18.25Z" fill="white"/>
<path d="M15.5801 16.2365C15.5801 16.2365 16.5316 9.38837 16.0647 8.25879C16.0647 8.25879 12.8316 10.8003 15.5801 16.2365Z" fill="#1E0B02"/>
<path d="M27.0206 16.1793C27.0206 16.1793 25.9523 9.63709 26.2495 7.75781C26.2495 7.75781 29.3694 10.3868 27.0206 16.1793Z" fill="#1E0B02"/>
<path d="M26.0229 7.2904L23.0621 6.86345L22.8004 6.37598L21.2369 6.60122L19.6734 6.37598L19.4116 6.86345L16.4509 7.2904L16.0547 8.79651L16.1537 10.5312C16.1537 10.5312 16.6207 8.56454 18.2514 8.95452C18.6369 9.04529 19.0968 9.19993 19.6345 9.30415C20.1368 9.40837 20.6178 9.45543 21.0671 9.46216C21.1201 9.46216 21.1767 9.46216 21.2298 9.46216C21.2828 9.46216 21.3394 9.46216 21.3925 9.46216C21.8453 9.45543 22.3228 9.40837 22.8251 9.30415C23.3628 9.19993 23.8333 9.07891 24.2082 8.95452C25.7186 8.4536 26.2775 10.4405 26.2775 10.4405L26.4049 8.79651L26.0087 7.2904H26.0229Z" fill="#1E0B02"/>
<path d="M25.9623 9.00125C25.9623 9.00125 24.038 10.6351 21.5725 9.37777C21.5725 9.37777 15.3008 13.0489 13.5286 9.05167C12.0535 5.72008 18.1802 1.19502 24.5014 6.29159L25.9623 8.99788V9.00125Z" fill="#1E0B02"/>
<path d="M17.7583 28.2681L15.7031 29.1657C15.7031 29.1657 15.6819 32.4435 21.2673 32.2721C26.9978 32.0972 26.9624 29.2161 26.9624 29.2161L24.7374 28.2109L17.7583 28.2681Z" fill="#C67D69"/>
</g>
<defs>
<linearGradient id="paint0_linear_296_15351" x1="1" y1="1" x2="45.7295" y2="4.74131" gradientUnits="userSpaceOnUse">
<stop stop-color="#7511F4"/>
<stop offset="1" stop-color="#BD08DA"/>
</linearGradient>
</defs>
</svg>
