<svg width="21" height="18" viewBox="0 0 21 18" fill="none" xmlns="http://www.w3.org/2000/svg">
<path d="M16.5857 0H3.69518C2.71549 0.00110029 1.77625 0.390766 1.08351 1.08351C0.390766 1.77625 0.00110029 2.71549 1.13805e-09 3.69518V17.0762C-8.11185e-06 17.2396 0.043361 17.4002 0.125683 17.5414C0.208004 17.6826 0.326329 17.7995 0.468576 17.8801C0.610823 17.9606 0.771899 18.002 0.935359 17.9999C1.09882 17.9979 1.25881 17.9525 1.39899 17.8684L6.2152 14.9797H16.5857C17.5654 14.9786 18.5046 14.5889 19.1974 13.8962C19.8901 13.2034 20.2798 12.2642 20.2809 11.2845V3.69518C20.2798 2.7155 19.8901 1.77627 19.1974 1.08353C18.5046 0.390798 17.5654 0.00112469 16.5857 0ZM18.4333 11.2845C18.4327 11.7744 18.2379 12.244 17.8915 12.5903C17.5452 12.9367 17.0756 13.1315 16.5857 13.1321H5.9593C5.79191 13.1321 5.62766 13.1776 5.48411 13.2637L1.84759 15.4448V3.69518C1.84815 3.20534 2.04299 2.73573 2.38935 2.38936C2.73572 2.04299 3.20534 1.84815 3.69518 1.84759H16.5857C17.0756 1.84815 17.5452 2.04299 17.8915 2.38936C18.2379 2.73573 18.4327 3.20534 18.4333 3.69518V11.2845Z" fill="url(#paint0_linear_296_16191)"/>
<defs>
<linearGradient id="paint0_linear_296_16191" x1="0" y1="0" x2="22.6365" y2="2.13331" gradientUnits="userSpaceOnUse">
<stop stop-color="#7511F4"/>
<stop offset="1" stop-color="#BD08DA"/>
</linearGradient>
</defs>
</svg>
