<svg width="87" height="66" viewBox="0 0 87 66" fill="none" xmlns="http://www.w3.org/2000/svg">
<path d="M2.47 24.3672C2.27933 24.3672 2.12333 24.3065 2.002 24.1852C1.88067 24.0465 1.82 23.8905 1.82 23.7172V6.81719C1.82 6.62652 1.88067 6.47052 2.002 6.34919C2.12333 6.22785 2.27933 6.16719 2.47 6.16719H9.75C11.1887 6.16719 12.4367 6.39252 13.494 6.84319C14.5687 7.27652 15.4007 7.93519 15.99 8.81919C16.5967 9.70319 16.9 10.8212 16.9 12.1732C16.9 13.5079 16.5967 14.6085 15.99 15.4752C15.4007 16.3419 14.5687 16.9832 13.494 17.3992C12.4367 17.8152 11.1887 18.0232 9.75 18.0232H6.656V23.7172C6.656 23.8905 6.58667 24.0465 6.448 24.1852C6.32667 24.3065 6.17067 24.3672 5.98 24.3672H2.47ZM6.578 14.4352H9.62C10.3653 14.4352 10.9547 14.2445 11.388 13.8632C11.8387 13.4819 12.064 12.9012 12.064 12.1212C12.064 11.4625 11.8733 10.9079 11.492 10.4572C11.1107 10.0065 10.4867 9.78119 9.62 9.78119H6.578V14.4352ZM24.0703 24.6272C23.0823 24.6272 22.1983 24.4019 21.4183 23.9512C20.6556 23.5005 20.0576 22.8419 19.6243 21.9752C19.191 21.0912 18.9743 20.0165 18.9743 18.7512V11.4972C18.9743 11.3065 19.035 11.1505 19.1563 11.0292C19.2776 10.9079 19.4336 10.8472 19.6243 10.8472H22.8743C23.065 10.8472 23.221 10.9079 23.3423 11.0292C23.481 11.1505 23.5503 11.3065 23.5503 11.4972V18.5952C23.5503 20.2939 24.3043 21.1432 25.8123 21.1432C26.523 21.1432 27.0863 20.9265 27.5023 20.4932C27.9356 20.0425 28.1523 19.4099 28.1523 18.5952V11.4972C28.1523 11.3065 28.213 11.1505 28.3343 11.0292C28.4556 10.9079 28.6116 10.8472 28.8023 10.8472H32.0523C32.243 10.8472 32.399 10.9079 32.5203 11.0292C32.6416 11.1505 32.7023 11.3065 32.7023 11.4972V23.7172C32.7023 23.8905 32.6416 24.0465 32.5203 24.1852C32.399 24.3065 32.243 24.3672 32.0523 24.3672H29.0363C28.863 24.3672 28.707 24.3065 28.5683 24.1852C28.447 24.0465 28.3863 23.8905 28.3863 23.7172V22.7292C27.9356 23.3532 27.3463 23.8299 26.6183 24.1592C25.9076 24.4712 25.0583 24.6272 24.0703 24.6272ZM36.4106 24.3672C36.2199 24.3672 36.0639 24.3065 35.9426 24.1852C35.8212 24.0465 35.7606 23.8905 35.7606 23.7172V11.4972C35.7606 11.3065 35.8212 11.1505 35.9426 11.0292C36.0639 10.9079 36.2199 10.8472 36.4106 10.8472H39.4006C39.5912 10.8472 39.7472 10.9079 39.8686 11.0292C40.0072 11.1505 40.0766 11.3065 40.0766 11.4972V12.4852C40.5099 11.9479 41.0906 11.4972 41.8186 11.1332C42.5466 10.7692 43.4046 10.5872 44.3926 10.5872C45.3979 10.5872 46.2819 10.8125 47.0446 11.2632C47.8246 11.7139 48.4312 12.3725 48.8646 13.2392C49.3152 14.1059 49.5406 15.1805 49.5406 16.4632V23.7172C49.5406 23.8905 49.4799 24.0465 49.3586 24.1852C49.2372 24.3065 49.0812 24.3672 48.8906 24.3672H45.6146C45.4412 24.3672 45.2852 24.3065 45.1466 24.1852C45.0252 24.0465 44.9646 23.8905 44.9646 23.7172V16.6192C44.9646 15.8045 44.7652 15.1805 44.3666 14.7472C43.9852 14.2965 43.4132 14.0712 42.6506 14.0712C41.9399 14.0712 41.3679 14.2965 40.9346 14.7472C40.5186 15.1805 40.3106 15.8045 40.3106 16.6192V23.7172C40.3106 23.8905 40.2412 24.0465 40.1026 24.1852C39.9812 24.3065 39.8339 24.3672 39.6606 24.3672H36.4106ZM59.2566 24.3672C58.1473 24.3672 57.1853 24.1939 56.3706 23.8472C55.5733 23.4832 54.958 22.9285 54.5246 22.1832C54.0913 21.4205 53.8746 20.4412 53.8746 19.2452V14.2532H51.8466C51.656 14.2532 51.4913 14.1925 51.3526 14.0712C51.2313 13.9499 51.1706 13.7939 51.1706 13.6032V11.4972C51.1706 11.3065 51.2313 11.1505 51.3526 11.0292C51.4913 10.9079 51.656 10.8472 51.8466 10.8472H53.8746V6.55719C53.8746 6.36652 53.9353 6.21052 54.0566 6.08919C54.1953 5.96785 54.3513 5.90719 54.5246 5.90719H57.5406C57.7313 5.90719 57.8873 5.96785 58.0086 6.08919C58.13 6.21052 58.1906 6.36652 58.1906 6.55719V10.8472H61.4406C61.6313 10.8472 61.7873 10.9079 61.9086 11.0292C62.0473 11.1505 62.1166 11.3065 62.1166 11.4972V13.6032C62.1166 13.7939 62.0473 13.9499 61.9086 14.0712C61.7873 14.1925 61.6313 14.2532 61.4406 14.2532H58.1906V18.8812C58.1906 19.4705 58.3033 19.9385 58.5286 20.2852C58.754 20.6319 59.1353 20.8052 59.6726 20.8052H61.6746C61.8653 20.8052 62.0213 20.8659 62.1426 20.9872C62.264 21.1085 62.3246 21.2645 62.3246 21.4552V23.7172C62.3246 23.8905 62.264 24.0465 62.1426 24.1852C62.0213 24.3065 61.8653 24.3672 61.6746 24.3672H59.2566Z" fill="white"/>
<path d="M2.86 58.6289C2.66933 58.6289 2.522 58.5769 2.418 58.4729C2.314 58.3516 2.262 58.2042 2.262 58.0309V41.0529C2.262 40.8622 2.314 40.7149 2.418 40.6109C2.522 40.4896 2.66933 40.4289 2.86 40.4289H9.204C11.1627 40.4289 12.714 40.8882 13.858 41.8069C15.002 42.7256 15.574 44.0862 15.574 45.8889C15.574 47.2236 15.236 48.3156 14.56 49.1649C13.9013 49.9969 13 50.5776 11.856 50.9069L15.86 57.8229C15.912 57.9269 15.938 58.0222 15.938 58.1089C15.938 58.2476 15.8773 58.3689 15.756 58.4729C15.652 58.5769 15.5307 58.6289 15.392 58.6289H14.144C13.8493 58.6289 13.6327 58.5509 13.494 58.3949C13.3553 58.2389 13.234 58.0829 13.13 57.9269L9.36 51.3229H4.81V58.0309C4.81 58.2042 4.74933 58.3516 4.628 58.4729C4.524 58.5769 4.37667 58.6289 4.186 58.6289H2.86ZM4.81 49.1129H9.1C10.4 49.1129 11.3707 48.8442 12.012 48.3069C12.6533 47.7522 12.974 46.9376 12.974 45.8629C12.974 44.8056 12.6533 43.9996 12.012 43.4449C11.388 42.8902 10.4173 42.6129 9.1 42.6129H4.81V49.1129ZM24.2168 58.8889C22.4141 58.8889 20.9841 58.3429 19.9268 57.2509C18.8694 56.1416 18.2888 54.6336 18.1848 52.7269C18.1674 52.5016 18.1588 52.2156 18.1588 51.8689C18.1588 51.5049 18.1674 51.2102 18.1848 50.9849C18.2541 49.7542 18.5401 48.6796 19.0428 47.7609C19.5454 46.8249 20.2301 46.1056 21.0968 45.6029C21.9808 45.1002 23.0121 44.8489 24.1908 44.8489C25.5081 44.8489 26.6088 45.1262 27.4928 45.6809C28.3941 46.2356 29.0788 47.0242 29.5468 48.0469C30.0148 49.0696 30.2488 50.2656 30.2488 51.6349V52.0769C30.2488 52.2676 30.1881 52.4149 30.0668 52.5189C29.9628 52.6229 29.8241 52.6749 29.6508 52.6749H20.6548C20.6548 52.6922 20.6548 52.7269 20.6548 52.7789C20.6548 52.8309 20.6548 52.8742 20.6548 52.9089C20.6894 53.6196 20.8454 54.2869 21.1228 54.9109C21.4001 55.5176 21.7988 56.0116 22.3188 56.3929C22.8561 56.7742 23.4801 56.9649 24.1908 56.9649C24.8148 56.9649 25.3348 56.8696 25.7508 56.6789C26.1668 56.4882 26.5048 56.2802 26.7648 56.0549C27.0248 55.8122 27.1981 55.6216 27.2848 55.4829C27.4408 55.2749 27.5621 55.1536 27.6488 55.1189C27.7354 55.0669 27.8741 55.0409 28.0648 55.0409H29.3388C29.4948 55.0409 29.6248 55.0929 29.7288 55.1969C29.8501 55.2836 29.9021 55.4136 29.8848 55.5869C29.8674 55.8469 29.7288 56.1676 29.4688 56.5489C29.2088 56.9129 28.8361 57.2769 28.3508 57.6409C27.8828 58.0049 27.2934 58.3082 26.5828 58.5509C25.8894 58.7762 25.1008 58.8889 24.2168 58.8889ZM20.6548 50.8809H27.7788V50.8029C27.7788 50.0229 27.6314 49.3296 27.3368 48.7229C27.0594 48.1162 26.6521 47.6396 26.1148 47.2929C25.5774 46.9289 24.9361 46.7469 24.1908 46.7469C23.4454 46.7469 22.8041 46.9289 22.2668 47.2929C21.7468 47.6396 21.3481 48.1162 21.0708 48.7229C20.7934 49.3296 20.6548 50.0229 20.6548 50.8029V50.8809ZM37.6066 58.6289C37.3466 58.6289 37.1386 58.5682 36.9826 58.4469C36.8439 58.3256 36.7312 58.1696 36.6446 57.9789L31.8346 45.9149C31.7999 45.8282 31.7826 45.7416 31.7826 45.6549C31.7826 45.4989 31.8346 45.3689 31.9386 45.2649C32.0426 45.1609 32.1726 45.1089 32.3286 45.1089H33.5766C33.7672 45.1089 33.9146 45.1609 34.0186 45.2649C34.1226 45.3689 34.1919 45.4642 34.2266 45.5509L38.1786 55.7949L42.1306 45.5509C42.1652 45.4642 42.2259 45.3689 42.3126 45.2649C42.4166 45.1609 42.5639 45.1089 42.7546 45.1089H44.0286C44.1672 45.1089 44.2886 45.1609 44.3926 45.2649C44.5139 45.3689 44.5746 45.4989 44.5746 45.6549C44.5746 45.7416 44.5572 45.8282 44.5226 45.9149L39.6866 57.9789C39.6172 58.1696 39.5046 58.3256 39.3486 58.4469C39.2099 58.5682 39.0019 58.6289 38.7246 58.6289H37.6066ZM47.895 58.6289C47.7217 58.6289 47.5744 58.5769 47.453 58.4729C47.349 58.3516 47.297 58.2042 47.297 58.0309V45.7069C47.297 45.5336 47.349 45.3949 47.453 45.2909C47.5744 45.1696 47.7217 45.1089 47.895 45.1089H49.143C49.3164 45.1089 49.455 45.1696 49.559 45.2909C49.6804 45.3949 49.741 45.5336 49.741 45.7069V58.0309C49.741 58.2042 49.6804 58.3516 49.559 58.4729C49.455 58.5769 49.3164 58.6289 49.143 58.6289H47.895ZM47.687 42.5869C47.5137 42.5869 47.3664 42.5349 47.245 42.4309C47.141 42.3096 47.089 42.1622 47.089 41.9889V40.5849C47.089 40.4116 47.141 40.2642 47.245 40.1429C47.3664 40.0216 47.5137 39.9609 47.687 39.9609H49.325C49.4984 39.9609 49.6457 40.0216 49.767 40.1429C49.8884 40.2642 49.949 40.4116 49.949 40.5849V41.9889C49.949 42.1622 49.8884 42.3096 49.767 42.4309C49.6457 42.5349 49.4984 42.5869 49.325 42.5869H47.687ZM59.0019 58.8889C57.1993 58.8889 55.7693 58.3429 54.7119 57.2509C53.6546 56.1416 53.0739 54.6336 52.9699 52.7269C52.9526 52.5016 52.9439 52.2156 52.9439 51.8689C52.9439 51.5049 52.9526 51.2102 52.9699 50.9849C53.0393 49.7542 53.3253 48.6796 53.8279 47.7609C54.3306 46.8249 55.0153 46.1056 55.8819 45.6029C56.7659 45.1002 57.7973 44.8489 58.9759 44.8489C60.2933 44.8489 61.3939 45.1262 62.2779 45.6809C63.1793 46.2356 63.8639 47.0242 64.3319 48.0469C64.7999 49.0696 65.0339 50.2656 65.0339 51.6349V52.0769C65.0339 52.2676 64.9733 52.4149 64.8519 52.5189C64.7479 52.6229 64.6093 52.6749 64.4359 52.6749H55.4399C55.4399 52.6922 55.4399 52.7269 55.4399 52.7789C55.4399 52.8309 55.4399 52.8742 55.4399 52.9089C55.4746 53.6196 55.6306 54.2869 55.9079 54.9109C56.1853 55.5176 56.5839 56.0116 57.1039 56.3929C57.6413 56.7742 58.2653 56.9649 58.9759 56.9649C59.5999 56.9649 60.1199 56.8696 60.5359 56.6789C60.9519 56.4882 61.2899 56.2802 61.5499 56.0549C61.8099 55.8122 61.9833 55.6216 62.0699 55.4829C62.2259 55.2749 62.3473 55.1536 62.4339 55.1189C62.5206 55.0669 62.6593 55.0409 62.8499 55.0409H64.1239C64.2799 55.0409 64.4099 55.0929 64.5139 55.1969C64.6353 55.2836 64.6873 55.4136 64.6699 55.5869C64.6526 55.8469 64.5139 56.1676 64.2539 56.5489C63.9939 56.9129 63.6213 57.2769 63.1359 57.6409C62.6679 58.0049 62.0786 58.3082 61.3679 58.5509C60.6746 58.7762 59.8859 58.8889 59.0019 58.8889ZM55.4399 50.8809H62.5639V50.8029C62.5639 50.0229 62.4166 49.3296 62.1219 48.7229C61.8446 48.1162 61.4373 47.6396 60.8999 47.2929C60.3626 46.9289 59.7213 46.7469 58.9759 46.7469C58.2306 46.7469 57.5893 46.9289 57.0519 47.2929C56.5319 47.6396 56.1333 48.1162 55.8559 48.7229C55.5786 49.3296 55.4399 50.0229 55.4399 50.8029V50.8809ZM71.3753 58.6289C71.1499 58.6289 70.9766 58.5769 70.8553 58.4729C70.7339 58.3516 70.6299 58.1869 70.5433 57.9789L66.8513 45.9149C66.8166 45.8282 66.7993 45.7416 66.7993 45.6549C66.7993 45.4989 66.8513 45.3689 66.9553 45.2649C67.0766 45.1609 67.2066 45.1089 67.3453 45.1089H68.4893C68.6799 45.1089 68.8273 45.1609 68.9313 45.2649C69.0353 45.3689 69.1046 45.4642 69.1393 45.5509L72.0253 55.3529L75.1193 45.6549C75.1539 45.5336 75.2233 45.4122 75.3273 45.2909C75.4486 45.1696 75.6219 45.1089 75.8473 45.1089H76.7313C76.9566 45.1089 77.1299 45.1696 77.2513 45.2909C77.3726 45.4122 77.4419 45.5336 77.4593 45.6549L80.5533 55.3529L83.4393 45.5509C83.4566 45.4642 83.5173 45.3689 83.6213 45.2649C83.7253 45.1609 83.8726 45.1089 84.0633 45.1089H85.2333C85.3719 45.1089 85.4933 45.1609 85.5973 45.2649C85.7013 45.3689 85.7533 45.4989 85.7533 45.6549C85.7533 45.7416 85.7359 45.8282 85.7013 45.9149L82.0353 57.9789C81.9659 58.1869 81.8706 58.3516 81.7493 58.4729C81.6279 58.5769 81.4373 58.6289 81.1773 58.6289H80.1633C79.9379 58.6289 79.7473 58.5769 79.5913 58.4729C79.4526 58.3516 79.3573 58.1869 79.3053 57.9789L76.2893 48.6709L73.2733 57.9789C73.2039 58.1869 73.0999 58.3516 72.9613 58.4729C72.8226 58.5769 72.6319 58.6289 72.3893 58.6289H71.3753Z" fill="white"/>
</svg>
