<svg width="20" height="20" viewBox="0 0 20 20" fill="none" xmlns="http://www.w3.org/2000/svg">
<path d="M15.9671 9.70418C15.5299 8.46754 14.7776 7.3664 13.7844 6.50961C12.5391 5.45833 11.7311 3.97996 11.5188 2.3641C11.4932 2.21054 11.4251 2.06723 11.3222 1.95041C11.2192 1.8336 11.0857 1.74795 10.9366 1.70317C10.7875 1.6584 10.6288 1.65629 10.4786 1.69709C10.3283 1.73789 10.1925 1.81996 10.0865 1.93401C9.51634 2.66741 9.13258 3.52818 8.96816 4.44248C8.80374 5.35679 8.86357 6.29733 9.14252 7.18343C9.54698 8.80249 9.24585 9.41936 9.09694 9.60897C9.01939 9.70161 8.92099 9.77454 8.8098 9.82179C8.69861 9.86903 8.57781 9.88925 8.45729 9.88078C7.12106 9.88078 7.05106 7.00887 7.05106 6.97956C7.05058 6.80976 6.99826 6.64416 6.90111 6.5049C6.80395 6.36565 6.66659 6.25938 6.5074 6.20032C6.34821 6.14125 6.17477 6.1322 6.0103 6.17438C5.84583 6.21656 5.69815 6.30796 5.58703 6.43635C4.77658 7.41537 4.2019 8.5675 3.90734 9.80385C2.97554 14.46 5.41125 16.6536 6.50174 17.3808C7.46258 18.0164 8.59107 18.3513 9.74312 18.3427C11.4301 18.3442 13.0526 17.6949 14.2727 16.5299C15.1646 15.6641 15.7961 14.5657 16.0956 13.3592C16.3951 12.1528 16.3505 10.8866 15.9671 9.70418Z" fill="url(#paint0_linear_296_16250)"/>
<defs>
<linearGradient id="paint0_linear_296_16250" x1="3.69922" y1="1.66797" x2="17.8226" y2="2.56006" gradientUnits="userSpaceOnUse">
<stop stop-color="#7511F4"/>
<stop offset="1" stop-color="#BD08DA"/>
</linearGradient>
</defs>
</svg>
