<svg width="65" height="17" viewBox="0 0 65 17" fill="none" xmlns="http://www.w3.org/2000/svg">
<path d="M2 12L8 6L14 12" stroke="url(#paint0_linear_296_16099)" stroke-width="3"/>
<path d="M29.788 13.14C28.9573 13.14 28.2527 12.986 27.674 12.678C27.1047 12.37 26.666 11.936 26.358 11.376C26.0593 10.816 25.8913 10.158 25.854 9.402C25.8447 8.99133 25.84 8.55733 25.84 8.1C25.84 7.63333 25.8447 7.19 25.854 6.77C25.8913 6.014 26.0593 5.36067 26.358 4.81C26.666 4.25 27.1093 3.82067 27.688 3.522C28.2667 3.214 28.9667 3.06 29.788 3.06C30.4413 3.06 31.0107 3.15333 31.496 3.34C31.9813 3.52667 32.378 3.76467 32.686 4.054C33.0033 4.334 33.2367 4.628 33.386 4.936C33.5447 5.244 33.6287 5.51467 33.638 5.748C33.6473 5.832 33.624 5.902 33.568 5.958C33.512 6.00467 33.4373 6.028 33.344 6.028H32.518C32.4247 6.028 32.3547 6.00933 32.308 5.972C32.2707 5.93467 32.2333 5.86933 32.196 5.776C32.112 5.53333 31.972 5.29533 31.776 5.062C31.5893 4.82867 31.3327 4.63733 31.006 4.488C30.6887 4.32933 30.2827 4.25 29.788 4.25C29.0413 4.25 28.4393 4.45067 27.982 4.852C27.534 5.25333 27.2913 5.916 27.254 6.84C27.226 7.67067 27.226 8.50133 27.254 9.332C27.2913 10.2653 27.5387 10.9373 27.996 11.348C28.4533 11.7493 29.0507 11.95 29.788 11.95C30.2827 11.95 30.7213 11.8567 31.104 11.67C31.496 11.4833 31.804 11.2033 32.028 10.83C32.252 10.4473 32.364 9.962 32.364 9.374V8.786H30.264C30.1707 8.786 30.0913 8.758 30.026 8.702C29.97 8.63667 29.942 8.55267 29.942 8.45V8.002C29.942 7.89933 29.97 7.82 30.026 7.764C30.0913 7.69867 30.1707 7.666 30.264 7.666H33.428C33.5307 7.666 33.61 7.69867 33.666 7.764C33.722 7.82 33.75 7.89933 33.75 8.002V9.346C33.75 10.1113 33.5913 10.7787 33.274 11.348C32.966 11.9173 32.5133 12.3607 31.916 12.678C31.3187 12.986 30.6093 13.14 29.788 13.14ZM38.5473 13.14C37.838 13.14 37.2453 13.0047 36.7693 12.734C36.2933 12.4633 35.9293 12.09 35.6773 11.614C35.4253 11.1287 35.2853 10.578 35.2573 9.962C35.248 9.80333 35.2433 9.60267 35.2433 9.36C35.2433 9.108 35.248 8.90733 35.2573 8.758C35.2853 8.13267 35.4253 7.582 35.6773 7.106C35.9386 6.63 36.3073 6.25667 36.7833 5.986C37.2593 5.71533 37.8473 5.58 38.5473 5.58C39.2473 5.58 39.8353 5.71533 40.3113 5.986C40.7873 6.25667 41.1513 6.63 41.4033 7.106C41.6646 7.582 41.8093 8.13267 41.8373 8.758C41.8466 8.90733 41.8513 9.108 41.8513 9.36C41.8513 9.60267 41.8466 9.80333 41.8373 9.962C41.8093 10.578 41.6693 11.1287 41.4173 11.614C41.1653 12.09 40.8013 12.4633 40.3253 12.734C39.8493 13.0047 39.2566 13.14 38.5473 13.14ZM38.5473 12.062C39.126 12.062 39.588 11.88 39.9333 11.516C40.2786 11.1427 40.4653 10.6013 40.4933 9.892C40.5026 9.752 40.5073 9.57467 40.5073 9.36C40.5073 9.14533 40.5026 8.968 40.4933 8.828C40.4653 8.11867 40.2786 7.582 39.9333 7.218C39.588 6.84467 39.126 6.658 38.5473 6.658C37.9686 6.658 37.502 6.84467 37.1473 7.218C36.802 7.582 36.62 8.11867 36.6013 8.828C36.592 8.968 36.5873 9.14533 36.5873 9.36C36.5873 9.57467 36.592 9.752 36.6013 9.892C36.62 10.6013 36.802 11.1427 37.1473 11.516C37.502 11.88 37.9686 12.062 38.5473 12.062ZM50.914 13.14C50.13 13.14 49.4533 13 48.884 12.72C48.324 12.44 47.89 12.0153 47.582 11.446C47.2833 10.8673 47.134 10.1253 47.134 9.22V3.536C47.134 3.43333 47.162 3.354 47.218 3.298C47.274 3.23267 47.3533 3.2 47.456 3.2H48.17C48.2727 3.2 48.352 3.23267 48.408 3.298C48.4733 3.354 48.506 3.43333 48.506 3.536V9.248C48.506 10.1627 48.7207 10.8393 49.15 11.278C49.5793 11.7167 50.1673 11.936 50.914 11.936C51.6513 11.936 52.2347 11.7167 52.664 11.278C53.1027 10.8393 53.322 10.1627 53.322 9.248V3.536C53.322 3.43333 53.35 3.354 53.406 3.298C53.4713 3.23267 53.5507 3.2 53.644 3.2H54.372C54.4653 3.2 54.54 3.23267 54.596 3.298C54.6613 3.354 54.694 3.43333 54.694 3.536V9.22C54.694 10.1253 54.54 10.8673 54.232 11.446C53.9333 12.0153 53.504 12.44 52.944 12.72C52.384 13 51.7073 13.14 50.914 13.14ZM57.1884 15.66C57.0951 15.66 57.0157 15.6273 56.9504 15.562C56.8944 15.506 56.8664 15.4313 56.8664 15.338V6.042C56.8664 5.94867 56.8944 5.874 56.9504 5.818C57.0157 5.75267 57.0951 5.72 57.1884 5.72H57.8324C57.9257 5.72 58.0004 5.75267 58.0564 5.818C58.1217 5.874 58.1544 5.94867 58.1544 6.042V6.658C58.3784 6.35 58.6771 6.09333 59.0504 5.888C59.4237 5.68267 59.8904 5.58 60.4504 5.58C60.9731 5.58 61.4164 5.66867 61.7804 5.846C62.1537 6.02333 62.4571 6.266 62.6904 6.574C62.9331 6.882 63.1151 7.232 63.2364 7.624C63.3577 8.016 63.4277 8.436 63.4464 8.884C63.4557 9.03333 63.4604 9.192 63.4604 9.36C63.4604 9.528 63.4557 9.68667 63.4464 9.836C63.4277 10.2747 63.3577 10.6947 63.2364 11.096C63.1151 11.488 62.9331 11.838 62.6904 12.146C62.4571 12.4447 62.1537 12.6873 61.7804 12.874C61.4164 13.0513 60.9731 13.14 60.4504 13.14C59.9091 13.14 59.4517 13.042 59.0784 12.846C58.7144 12.6407 58.4157 12.3887 58.1824 12.09V15.338C58.1824 15.4313 58.1544 15.506 58.0984 15.562C58.0424 15.6273 57.9677 15.66 57.8744 15.66H57.1884ZM60.1564 12.006C60.6417 12.006 61.0197 11.9033 61.2904 11.698C61.5704 11.4833 61.7711 11.208 61.8924 10.872C62.0137 10.5267 62.0837 10.158 62.1024 9.766C62.1117 9.49533 62.1117 9.22467 62.1024 8.954C62.0837 8.562 62.0137 8.198 61.8924 7.862C61.7711 7.51667 61.5704 7.24133 61.2904 7.036C61.0197 6.82133 60.6417 6.714 60.1564 6.714C59.6991 6.714 59.3257 6.82133 59.0364 7.036C58.7564 7.25067 58.5464 7.526 58.4064 7.862C58.2757 8.18867 58.2011 8.52467 58.1824 8.87C58.1731 9.01933 58.1684 9.19667 58.1684 9.402C58.1684 9.60733 58.1731 9.78933 58.1824 9.948C58.1917 10.2747 58.2664 10.5967 58.4064 10.914C58.5557 11.2313 58.7751 11.4927 59.0644 11.698C59.3537 11.9033 59.7177 12.006 60.1564 12.006Z" fill="url(#paint1_linear_296_16099)"/>
<defs>
<linearGradient id="paint0_linear_296_16099" x1="2" y1="12" x2="2.28207" y2="5.25544" gradientUnits="userSpaceOnUse">
<stop stop-color="#7511F4"/>
<stop offset="1" stop-color="#BD08DA"/>
</linearGradient>
<linearGradient id="paint1_linear_296_16099" x1="25" y1="0" x2="68.3628" y2="8.53412" gradientUnits="userSpaceOnUse">
<stop stop-color="#7511F4"/>
<stop offset="1" stop-color="#BD08DA"/>
</linearGradient>
</defs>
</svg>
